<svg xmlns="http://www.w3.org/2000/svg" viewBox="0 0 20.17 21.13"><defs><style>.cls-1{fill:#00c4bf;}.cls-2{fill:#007f7b;}.cls-3{fill:#feb100;}.cls-4{fill:#feca4f;}.cls-5{fill:#fecc56;}.cls-6{fill:#fec030;}.cls-7{fill:#fec336;}</style></defs><title>Icone</title><g id="Camada_2" data-name="Camada 2"><g id="Etiqueta"><path class="cls-1" d="M13.61,8.62a7.13,7.13,0,0,1,3.62-1.43,2.52,2.52,0,0,1,2.86,2.29,15.15,15.15,0,0,1-.9,7.24,5.82,5.82,0,0,1-4.29,3.33A24.39,24.39,0,0,1,8,20.57c-.08-.29.16-.41.31-.58,1.41-1.65,2.94-3.2,4.28-4.92a6.91,6.91,0,0,0,1.65-3.17,4.21,4.21,0,0,0-.47-2.65C13.7,9.05,13.49,8.89,13.61,8.62Z"/><path class="cls-2" d="M13.61,8.62a6.33,6.33,0,0,1,.82,2A4.65,4.65,0,0,1,13.6,14a30.89,30.89,0,0,1-3.11,3.84L8,20.57a.23.23,0,0,1-.11,0c-.23-.17-.19-.42-.18-.65a15.14,15.14,0,0,1,3.68-9.65c.42-.47.88-.88,1.33-1.3.21-.2.41-.43.74-.4Z"/><path class="cls-3" d="M6.27,20a19.61,19.61,0,0,1-.67-6.94A17.38,17.38,0,0,1,7.21,6.52,8.54,8.54,0,0,1,8.88,4.08c.19-.19.33-.29.57,0,.71.74,1.51,1.4,2.19,2.18.16.19.27.28,0,.48C9,8.52,7.75,11.22,7,14.2A19.83,19.83,0,0,0,6.38,20,.07.07,0,0,1,6.27,20Z"/><path class="cls-3" d="M5.48,19c-.17,0-.17-.15-.2-.24A22.34,22.34,0,0,1,4.53,5.1,9.53,9.53,0,0,1,6.15,1.89c.27-.35.48-.48.85-.09s1.07,1,1.6,1.45c.15.13.27.24.05.46a12.15,12.15,0,0,0-3.08,6.42,20.79,20.79,0,0,0,0,8.64.32.32,0,0,1,0,.17A.47.47,0,0,1,5.48,19Z"/><path class="cls-3" d="M4.28,17.77A21.88,21.88,0,0,1,2.2,11.33,21.93,21.93,0,0,1,2,4.81,9.6,9.6,0,0,1,3.37.31.57.57,0,0,1,4.09,0,5.9,5.9,0,0,1,6,1c.19.14.2.22,0,.4a12,12,0,0,0-2.59,7,25.26,25.26,0,0,0,1,9.35A.1.1,0,0,1,4.28,17.77Z"/><path class="cls-3" d="M13.49,8.59c-3.92,3-5.55,7.14-5.57,12-.21.18-.27.6-.6.53s-.43-.53-.45-.87C6.66,16,7.43,12,10.12,8.62A8.37,8.37,0,0,1,11.89,7c.24-.17.39-.15.57.1A8.2,8.2,0,0,1,13.49,8.59Z"/><path class="cls-3" d="M2.54,15.18A18.53,18.53,0,0,1,.21,8.53,12.48,12.48,0,0,1,.45,2.86,4.08,4.08,0,0,1,2.34.24c.13-.07.3-.26.46-.06s-.06.28-.12.41A12.51,12.51,0,0,0,1.47,5.24a24.31,24.31,0,0,0,1.15,9.62.87.87,0,0,1,0,.23C2.69,15.2,2.63,15.21,2.54,15.18Z"/><path class="cls-4" d="M2.54,15.18l.09-.09c.19.08.15.26.2.45A.33.33,0,0,1,2.54,15.18Z"/><path class="cls-5" d="M5.55,19.19a.15.15,0,0,1,.12.16s0,.09-.06.13a1.92,1.92,0,0,1-.13-.17C5.45,19.25,5.48,19.21,5.55,19.19Z"/><path class="cls-6" d="M6.27,20h.11c.07.09.14.23,0,.26S6.25,20.11,6.27,20Z"/><path class="cls-7" d="M4.28,17.77h.14c.12.09.16.26,0,.3S4.26,17.92,4.28,17.77Z"/></g></g></svg>